<svg xmlns="http://www.w3.org/2000/svg" viewBox="0 0 512 512" role="img" aria-labelledby="title desc">
  <title id="title">Project Ascension sigil</title>
  <desc id="desc">A luminous ascending tower enclosed by fractured concentric rings.</desc>
  <defs>
    <radialGradient id="bg" cx="50%" cy="42%" r="64%">
      <stop offset="0" stop-color="#173b4d"/>
      <stop offset="0.58" stop-color="#081b29"/>
      <stop offset="1" stop-color="#040b13"/>
    </radialGradient>
    <linearGradient id="cyan" x1="0" y1="1" x2="1" y2="0">
      <stop offset="0" stop-color="#2ac9e8"/>
      <stop offset="0.55" stop-color="#a9f7ff"/>
      <stop offset="1" stop-color="#51d7ef"/>
    </linearGradient>
    <linearGradient id="gold" x1="0" y1="0" x2="1" y2="1">
      <stop offset="0" stop-color="#f6dda0"/>
      <stop offset="1" stop-color="#b98a3e"/>
    </linearGradient>
    <filter id="glow" x="-50%" y="-50%" width="200%" height="200%">
      <feGaussianBlur stdDeviation="8" result="b"/>
      <feMerge><feMergeNode in="b"/><feMergeNode in="SourceGraphic"/></feMerge>
    </filter>
  </defs>
  <rect width="512" height="512" rx="104" fill="url(#bg)"/>
  <g fill="none" stroke-linecap="round">
    <path d="M117 331a163 163 0 0 1 20-180" stroke="url(#cyan)" stroke-width="16" filter="url(#glow)"/>
    <path d="M163 119a163 163 0 0 1 209 25" stroke="url(#gold)" stroke-width="10"/>
    <path d="M398 181a163 163 0 0 1-2 166" stroke="url(#cyan)" stroke-width="16" filter="url(#glow)"/>
    <path d="M367 382a163 163 0 0 1-214 3" stroke="url(#gold)" stroke-width="10"/>
    <path d="M159 316a112 112 0 0 1 35-143" stroke="#5ee5f3" stroke-width="7" opacity=".72"/>
    <path d="M220 150a112 112 0 0 1 130 54" stroke="#d7b96b" stroke-width="7" opacity=".78"/>
    <path d="M363 237a112 112 0 0 1-46 112" stroke="#5ee5f3" stroke-width="7" opacity=".72"/>
  </g>
  <g filter="url(#glow)">
    <path d="M256 92l35 64-18 0 0 216-34 0 0-216-18 0z" fill="url(#cyan)"/>
    <path d="M206 373h100l-15 34h-70z" fill="url(#gold)"/>
    <path d="M225 326h62" stroke="#e7fbff" stroke-width="9" stroke-linecap="round"/>
    <path d="M225 276h62" stroke="#e7fbff" stroke-width="9" stroke-linecap="round"/>
    <path d="M225 226h62" stroke="#e7fbff" stroke-width="9" stroke-linecap="round"/>
  </g>
  <circle cx="256" cy="256" r="24" fill="#e8fdff" opacity=".95" filter="url(#glow)"/>
</svg>
